<svg version="1.1" xmlns="http://www.w3.org/2000/svg" xmlns:xlink="http://www.w3.org/1999/xlink" width="601" height="2621"><defs/><g><g/><g/><g/><g/><g/><g/><g/><g/><g/><g/><g/><g/><g/><g/><g/><g/><g/><g/><g/><g/><g/><g/><g/><g/><g/><g/><g/><g/><g/><g/><g/><g/><g/><g/><g><rect fill="white" stroke="none" x="0" y="0" width="601" height="2621"/></g><g><text fill="black" stroke="none" font-family="sans-serif" font-size="16.5pt" font-style="normal" font-weight="normal" text-decoration="normal" x="85.5532522068815" y="24.50280495" text-anchor="start" dominant-baseline="alphabetic">Sequence diagram - cah - user &lt;-&gt; backend</text></g><g/><g><path fill="none" stroke="black" paint-order="fill stroke markers" d=" M 106.17882145 128.80307802049998 L 106.17882145 2621.5551016004997" stroke-miterlimit="10" stroke-width="1.3612669416666667" stroke-dasharray="12.565541,5.445067766666667"/><path fill="none" stroke="black" paint-order="fill stroke markers" d=" M 161.34836800289713 128.80307802049998 L 161.34836800289713 2621.5551016004997" stroke-miterlimit="10" stroke-width="1.3612669416666667" stroke-dasharray="12.565541,5.445067766666667"/><path fill="none" stroke="black" paint-order="fill stroke markers" d=" M 248.32186874485677 128.80307802049998 L 248.32186874485677 1025.6057391904997" stroke-miterlimit="10" stroke-width="1.3612669416666667" stroke-dasharray="12.565541,5.445067766666667"/><path fill="none" stroke="black" paint-order="fill stroke markers" d=" M 487.231761001263 128.80307802049998 L 487.231761001263 2621.5551016004997" stroke-miterlimit="10" stroke-width="1.3612669416666667" stroke-dasharray="12.565541,5.445067766666667"/></g><g><g><path fill="white" stroke="black" paint-order="fill stroke markers" d=" M 115.489887331 59.70516806150002 A 9.311065881 9.311065881 0 1 1 115.48988267546744 59.69585699717086 M 106.17882145 69.01623394250002 L 106.17882145 88.94518196850002 M 94.41747507400001 76.20372339450002 L 117.94016782599999 76.20372339450002 M 106.17882145 88.94518196850002 L 94.41747507400001 107.56731373050002 M 106.17882145 88.94518196850002 L 117.94016782599999 107.56731373050002" stroke-miterlimit="10" stroke-width="2.7769845610000004" stroke-dasharray=""/></g><g><g/><text fill="black" stroke="none" font-family="sans-serif" font-size="11pt" font-style="normal" font-weight="normal" text-decoration="normal" x="87.84311283183594" y="123.90251703050001" text-anchor="start" dominant-baseline="alphabetic">user1</text></g><g><path fill="white" stroke="black" paint-order="fill stroke markers" d=" M 170.65943388389712 59.70516806150002 A 9.311065881 9.311065881 0 1 1 170.6594292283646 59.69585699717086 M 161.34836800289713 69.01623394250002 L 161.34836800289713 88.94518196850002 M 149.58702162689713 76.20372339450002 L 173.10971437889714 76.20372339450002 M 161.34836800289713 88.94518196850002 L 149.58702162689713 107.56731373050002 M 161.34836800289713 88.94518196850002 L 173.10971437889714 107.56731373050002" stroke-miterlimit="10" stroke-width="2.7769845610000004" stroke-dasharray=""/></g><g><g/><text fill="black" stroke="none" font-family="sans-serif" font-size="11pt" font-style="normal" font-weight="normal" text-decoration="normal" x="143.01265938473307" y="123.90251703050001" text-anchor="start" dominant-baseline="alphabetic">user2</text></g><g><path fill="white" stroke="black" paint-order="fill stroke markers" d=" M 257.63293462585676 59.70516806150002 A 9.311065881 9.311065881 0 1 1 257.6329299703242 59.69585699717086 M 248.32186874485677 69.01623394250002 L 248.32186874485677 88.94518196850002 M 236.56052236885677 76.20372339450002 L 260.0832151208568 76.20372339450002 M 248.32186874485677 88.94518196850002 L 236.56052236885677 107.56731373050002 M 248.32186874485677 88.94518196850002 L 260.0832151208568 107.56731373050002" stroke-miterlimit="10" stroke-width="2.7769845610000004" stroke-dasharray=""/></g><g><g/><text fill="black" stroke="none" font-family="sans-serif" font-size="11pt" font-style="normal" font-weight="normal" text-decoration="normal" x="229.9861601266927" y="123.90251703050001" text-anchor="start" dominant-baseline="alphabetic">user3</text></g><path fill="none" stroke="none"/><g><path fill="white" stroke="black" paint-order="fill stroke markers" d=" M 441.79512139000127 84.69802911050002 L 532.6684006125247 84.69802911050002 L 532.6684006125247 128.8030780205 L 441.79512139000127 128.8030780205 L 441.79512139000127 84.69802911050002 Z" stroke-miterlimit="10" stroke-width="2.613632528" stroke-dasharray=""/></g><g><g/><text fill="black" stroke="none" font-family="sans-serif" font-size="11pt" font-style="normal" font-weight="normal" text-decoration="normal" x="459.5188169705013" y="112.46787472049999" text-anchor="start" dominant-baseline="alphabetic">backend</text></g></g><g><path fill="white" stroke="black" paint-order="fill stroke markers" d=" M 479.064159351263 270.91934673049997 L 495.399362651263 270.91934673049997 L 495.399362651263 362.3964852105 L 479.064159351263 362.3964852105 L 479.064159351263 270.91934673049997" stroke-miterlimit="10" stroke-width="1.3612669416666667" stroke-dasharray=""/><path fill="white" stroke="black" paint-order="fill stroke markers" d=" M 479.064159351263 476.74290831049996 L 495.399362651263 476.74290831049996 L 495.399362651263 613.9586160304998 L 479.064159351263 613.9586160304998 L 479.064159351263 476.74290831049996" stroke-miterlimit="10" stroke-width="1.3612669416666667" stroke-dasharray=""/><path fill="white" stroke="black" paint-order="fill stroke markers" d=" M 479.064159351263 728.3050391304997 L 495.399362651263 728.3050391304997 L 495.399362651263 911.2593160904995 L 479.064159351263 911.2593160904995 L 479.064159351263 728.3050391304997" stroke-miterlimit="10" stroke-width="1.3612669416666667" stroke-dasharray=""/><path fill="white" stroke="black" paint-order="fill stroke markers" d=" M 479.064159351263 1231.4293007704998 L 495.399362651263 1231.4293007704998 L 495.399362651263 1688.8149931705002 L 479.064159351263 1688.8149931705002 L 479.064159351263 1231.4293007704998" stroke-miterlimit="10" stroke-width="1.3612669416666667" stroke-dasharray=""/><path fill="white" stroke="black" paint-order="fill stroke markers" d=" M 479.064159351263 1757.4228470305002 L 495.399362651263 1757.4228470305002 L 495.399362651263 2071.0587503905003 L 479.064159351263 2071.0587503905003 L 479.064159351263 1757.4228470305002" stroke-miterlimit="10" stroke-width="1.3612669416666667" stroke-dasharray=""/><path fill="white" stroke="black" paint-order="fill stroke markers" d=" M 479.064159351263 2139.6666042505003 L 495.399362651263 2139.6666042505003 L 495.399362651263 2453.3025076104996 L 479.064159351263 2453.3025076104996 L 479.064159351263 2139.6666042505003" stroke-miterlimit="10" stroke-width="1.3612669416666667" stroke-dasharray=""/><g><g><rect fill="white" stroke="none" x="249.4267717342448" y="249.68358244049998" width="86.38943733277344" height="21.23576429"/></g><text fill="black" stroke="none" font-family="sans-serif" font-size="11pt" font-style="normal" font-weight="normal" text-decoration="normal" x="251.87705222924478" y="264.3852654105" text-anchor="start" dominant-baseline="alphabetic">game.create</text></g><g><path fill="none" stroke="black" paint-order="fill stroke markers" d=" M 106.17882145 270.91934673049997 L 476.3416254679297 270.91934673049997" stroke-miterlimit="10" stroke-width="1.3612669416666667" stroke-dasharray=""/><g transform="translate(479.064159351263,270.91934673049997) translate(-479.064159351263,-270.91934673049997)"><path fill="black" stroke="none" paint-order="stroke fill markers" d=" M 465.45148993459634 264.11301202216663 L 479.064159351263 270.91934673049997 L 465.45148993459634 277.7256814388333 Z"/></g></g><g><g><rect fill="white" stroke="none" x="249.4267717342448" y="295.42215168049995" width="86.38943733277344" height="21.23576429"/></g><text fill="black" stroke="none" font-family="sans-serif" font-size="11pt" font-style="normal" font-weight="normal" text-decoration="normal" x="251.87705222924478" y="310.12383465049993" text-anchor="start" dominant-baseline="alphabetic">game.create</text></g><g><path fill="none" stroke="black" paint-order="fill stroke markers" d=" M 479.064159351263 316.65791597049997 L 108.90135533333333 316.65791597049997" stroke-miterlimit="10" stroke-width="1.3612669416666667" stroke-dasharray="6.53408132"/><g transform="translate(106.17882145,316.65791597049997) translate(-106.17882145,-316.65791597049997)"><path fill="black" stroke="none" paint-order="stroke fill markers" d=" M 119.79149086666666 309.85158126216663 L 106.17882145 316.65791597049997 L 119.79149086666666 323.4642506788333 Z"/></g></g><g><g><rect fill="white" stroke="none" x="230.27862415123698" y="341.16072092049995" width="124.68573249878906" height="21.23576429"/></g><text fill="black" stroke="none" font-family="sans-serif" font-size="11pt" font-style="normal" font-weight="normal" text-decoration="normal" x="232.72890464623697" y="355.86240389049993" text-anchor="start" dominant-baseline="alphabetic">player.cards.ready</text></g><g><path fill="none" stroke="black" paint-order="fill stroke markers" d=" M 479.064159351263 362.3964852105 L 108.90135533333333 362.3964852105" stroke-miterlimit="10" stroke-width="1.3612669416666667" stroke-dasharray="6.53408132"/><g transform="translate(106.17882145,362.3964852105) translate(-106.17882145,-362.3964852105)"><path fill="black" stroke="none" paint-order="stroke fill markers" d=" M 119.79149086666666 355.59015050216664 L 106.17882145 362.3964852105 L 119.79149086666666 369.2028199188333 Z"/></g></g><g><g><rect fill="white" stroke="none" x="285.97360403168943" y="455.50714402049994" width="68.46531929078125" height="21.23576429"/></g><text fill="black" stroke="none" font-family="sans-serif" font-size="11pt" font-style="normal" font-weight="normal" text-decoration="normal" x="288.42388452668945" y="470.2088269904999" text-anchor="start" dominant-baseline="alphabetic">game.join</text></g><g><path fill="none" stroke="black" paint-order="fill stroke markers" d=" M 161.34836800289713 476.74290831049996 L 476.3416254679297 476.74290831049996" stroke-miterlimit="10" stroke-width="1.3612669416666667" stroke-dasharray=""/><g transform="translate(479.064159351263,476.74290831049996) translate(-479.064159351263,-476.74290831049996)"><path fill="black" stroke="none" paint-order="stroke fill markers" d=" M 465.45148993459634 469.9365736021666 L 479.064159351263 476.74290831049996 L 465.45148993459634 483.5492430188333 Z"/></g></g><g><g><rect fill="white" stroke="none" x="285.97360403168943" y="501.2457132604999" width="68.46531929078125" height="21.23576429"/></g><text fill="black" stroke="none" font-family="sans-serif" font-size="11pt" font-style="normal" font-weight="normal" text-decoration="normal" x="288.42388452668945" y="515.9473962304999" text-anchor="start" dominant-baseline="alphabetic">game.join</text></g><g><path fill="none" stroke="black" paint-order="fill stroke markers" d=" M 479.064159351263 522.4814775504999 L 164.07090188623047 522.4814775504999" stroke-miterlimit="10" stroke-width="1.3612669416666667" stroke-dasharray="6.53408132"/><g transform="translate(161.34836800289713,522.4814775504999) translate(-161.34836800289713,-522.4814775504999)"><path fill="black" stroke="none" paint-order="stroke fill markers" d=" M 174.9610374195638 515.6751428421666 L 161.34836800289713 522.4814775504999 L 174.9610374195638 529.2878122588332 Z"/></g></g><g><g><rect fill="white" stroke="none" x="257.1647935848307" y="546.9842825004998" width="70.91339363160156" height="21.23576429"/></g><text fill="black" stroke="none" font-family="sans-serif" font-size="11pt" font-style="normal" font-weight="normal" text-decoration="normal" x="259.6150740798307" y="561.6859654704998" text-anchor="start" dominant-baseline="alphabetic">player.join</text></g><g><path fill="none" stroke="black" paint-order="fill stroke markers" d=" M 479.064159351263 568.2200467904999 L 108.90135533333333 568.2200467904999" stroke-miterlimit="10" stroke-width="1.3612669416666667" stroke-dasharray=""/><g transform="translate(106.17882145,568.2200467904999) translate(-106.17882145,-568.2200467904999)"><path fill="black" stroke="none" paint-order="stroke fill markers" d=" M 119.79149086666666 561.4137120821665 L 106.17882145 568.2200467904999 L 119.79149086666666 575.0263814988332 Z"/></g></g><g><g><rect fill="white" stroke="none" x="257.8633974276855" y="592.7228517404998" width="124.68573249878906" height="21.23576429"/></g><text fill="black" stroke="none" font-family="sans-serif" font-size="11pt" font-style="normal" font-weight="normal" text-decoration="normal" x="260.31367792268554" y="607.4245347104998" text-anchor="start" dominant-baseline="alphabetic">player.cards.ready</text></g><g><path fill="none" stroke="black" paint-order="fill stroke markers" d=" M 479.064159351263 613.9586160304998 L 164.07090188623047 613.9586160304998" stroke-miterlimit="10" stroke-width="1.3612669416666667" stroke-dasharray="6.53408132"/><g transform="translate(161.34836800289713,613.9586160304998) translate(-161.34836800289713,-613.9586160304998)"><path fill="black" stroke="none" paint-order="stroke fill markers" d=" M 174.9610374195638 607.1522813221665 L 161.34836800289713 613.9586160304998 L 174.9610374195638 620.7649507388331 Z"/></g></g><g><g><rect fill="white" stroke="none" x="329.4603544026693" y="707.0692748404997" width="68.46531929078125" height="21.23576429"/></g><text fill="black" stroke="none" font-family="sans-serif" font-size="11pt" font-style="normal" font-weight="normal" text-decoration="normal" x="331.9106348976693" y="721.7709578104997" text-anchor="start" dominant-baseline="alphabetic">game.join</text></g><g><path fill="none" stroke="black" paint-order="fill stroke markers" d=" M 248.32186874485677 728.3050391304997 L 476.3416254679297 728.3050391304997" stroke-miterlimit="10" stroke-width="1.3612669416666667" stroke-dasharray=""/><g transform="translate(479.064159351263,728.3050391304997) translate(-479.064159351263,-728.3050391304997)"><path fill="black" stroke="none" paint-order="stroke fill markers" d=" M 465.45148993459634 721.4987044221664 L 479.064159351263 728.3050391304997 L 465.45148993459634 735.1113738388331 Z"/></g></g><g><g><rect fill="white" stroke="none" x="329.4603544026693" y="752.8078440804996" width="68.46531929078125" height="21.23576429"/></g><text fill="black" stroke="none" font-family="sans-serif" font-size="11pt" font-style="normal" font-weight="normal" text-decoration="normal" x="331.9106348976693" y="767.5095270504996" text-anchor="start" dominant-baseline="alphabetic">game.join</text></g><g><path fill="none" stroke="black" paint-order="fill stroke markers" d=" M 479.064159351263 774.0436083704997 L 251.0444026281901 774.0436083704997" stroke-miterlimit="10" stroke-width="1.3612669416666667" stroke-dasharray="6.53408132"/><g transform="translate(248.32186874485677,774.0436083704997) translate(-248.32186874485677,-774.0436083704997)"><path fill="black" stroke="none" paint-order="stroke fill markers" d=" M 261.93453816152345 767.2372736621663 L 248.32186874485677 774.0436083704997 L 261.93453816152345 780.849943078833 Z"/></g></g><g><g><rect fill="white" stroke="none" x="257.1647935848307" y="798.5464133204996" width="70.91339363160156" height="21.23576429"/></g><text fill="black" stroke="none" font-family="sans-serif" font-size="11pt" font-style="normal" font-weight="normal" text-decoration="normal" x="259.6150740798307" y="813.2480962904996" text-anchor="start" dominant-baseline="alphabetic">player.join</text></g><g><path fill="none" stroke="black" paint-order="fill stroke markers" d=" M 479.064159351263 819.7821776104996 L 108.90135533333333 819.7821776104996" stroke-miterlimit="10" stroke-width="1.3612669416666667" stroke-dasharray=""/><g transform="translate(106.17882145,819.7821776104996) translate(-106.17882145,-819.7821776104996)"><path fill="black" stroke="none" paint-order="stroke fill markers" d=" M 119.79149086666666 812.9758429021663 L 106.17882145 819.7821776104996 L 119.79149086666666 826.588512318833 Z"/></g></g><g><g><rect fill="white" stroke="none" x="284.7495668612793" y="844.2849825604995" width="70.91339363160156" height="21.23576429"/></g><text fill="black" stroke="none" font-family="sans-serif" font-size="11pt" font-style="normal" font-weight="normal" text-decoration="normal" x="287.1998473562793" y="858.9866655304995" text-anchor="start" dominant-baseline="alphabetic">player.join</text></g><g><path fill="none" stroke="black" paint-order="fill stroke markers" d=" M 479.064159351263 865.5207468504996 L 164.07090188623047 865.5207468504996" stroke-miterlimit="10" stroke-width="1.3612669416666667" stroke-dasharray=""/><g transform="translate(161.34836800289713,865.5207468504996) translate(-161.34836800289713,-865.5207468504996)"><path fill="black" stroke="none" paint-order="stroke fill markers" d=" M 174.9610374195638 858.7144121421662 L 161.34836800289713 865.5207468504996 L 174.9610374195638 872.3270815588329 Z"/></g></g><g><g><rect fill="white" stroke="none" x="301.3501477986654" y="890.0235518004995" width="124.68573249878906" height="21.23576429"/></g><text fill="black" stroke="none" font-family="sans-serif" font-size="11pt" font-style="normal" font-weight="normal" text-decoration="normal" x="303.8004282936654" y="904.7252347704995" text-anchor="start" dominant-baseline="alphabetic">player.cards.ready</text></g><g><path fill="none" stroke="black" paint-order="fill stroke markers" d=" M 479.064159351263 911.2593160904995 L 251.0444026281901 911.2593160904995" stroke-miterlimit="10" stroke-width="1.3612669416666667" stroke-dasharray="6.53408132"/><g transform="translate(248.32186874485677,911.2593160904995) translate(-248.32186874485677,-911.2593160904995)"><path fill="black" stroke="none" paint-order="stroke fill markers" d=" M 261.93453816152345 904.4529813821662 L 248.32186874485677 911.2593160904995 L 261.93453816152345 918.0656507988328 Z"/></g></g><g><g><rect fill="white" stroke="none" x="327.431057083138" y="1004.3699749004996" width="80.69151557984375" height="21.23576429"/></g><text fill="black" stroke="none" font-family="sans-serif" font-size="11pt" font-style="normal" font-weight="normal" text-decoration="normal" x="329.881337578138" y="1019.0716578704996" text-anchor="start" dominant-baseline="alphabetic">game.leave</text></g><g><path fill="none" stroke="black" paint-order="fill stroke markers" d=" M 248.32186874485677 1025.6057391904997 L 484.5092271179297 1025.6057391904997" stroke-miterlimit="10" stroke-width="1.3612669416666667" stroke-dasharray=""/><g transform="translate(487.231761001263,1025.6057391904997) translate(-487.231761001263,-1025.6057391904997)"><path fill="black" stroke="none" paint-order="stroke fill markers" d=" M 473.61909158459633 1018.7994044821663 L 487.231761001263 1025.6057391904997 L 473.61909158459633 1032.412073898833 Z"/></g></g><g><g><rect fill="white" stroke="none" x="255.1354962652995" y="1050.1085441404998" width="83.13958992066406" height="21.23576429"/></g><text fill="black" stroke="none" font-family="sans-serif" font-size="11pt" font-style="normal" font-weight="normal" text-decoration="normal" x="257.5857767602995" y="1064.8102271105" text-anchor="start" dominant-baseline="alphabetic">player.leave</text></g><g><path fill="none" stroke="black" paint-order="fill stroke markers" d=" M 487.231761001263 1071.3443084304997 L 108.90135533333333 1071.3443084304997" stroke-miterlimit="10" stroke-width="1.3612669416666667" stroke-dasharray=""/><g transform="translate(106.17882145,1071.3443084304997) translate(-106.17882145,-1071.3443084304997)"><path fill="black" stroke="none" paint-order="stroke fill markers" d=" M 119.79149086666666 1064.5379737221665 L 106.17882145 1071.3443084304997 L 119.79149086666666 1078.150643138833 Z"/></g></g><g><g><rect fill="white" stroke="none" x="282.72026954174805" y="1095.8471133804999" width="83.13958992066406" height="21.23576429"/></g><text fill="black" stroke="none" font-family="sans-serif" font-size="11pt" font-style="normal" font-weight="normal" text-decoration="normal" x="285.17055003674807" y="1110.5487963505" text-anchor="start" dominant-baseline="alphabetic">player.leave</text></g><g><path fill="none" stroke="black" paint-order="fill stroke markers" d=" M 487.231761001263 1117.0828776704998 L 164.07090188623047 1117.0828776704998" stroke-miterlimit="10" stroke-width="1.3612669416666667" stroke-dasharray=""/><g transform="translate(161.34836800289713,1117.0828776704998) translate(-161.34836800289713,-1117.0828776704998)"><path fill="black" stroke="none" paint-order="stroke fill markers" d=" M 174.9610374195638 1110.2765429621666 L 161.34836800289713 1117.0828776704998 L 174.9610374195638 1123.889212378833 Z"/></g></g><g><g><rect fill="white" stroke="none" x="255.5434480648112" y="1210.1935364805" width="74.15608467164063" height="21.23576429"/></g><text fill="black" stroke="none" font-family="sans-serif" font-size="11pt" font-style="normal" font-weight="normal" text-decoration="normal" x="257.9937285598112" y="1224.8952194505" text-anchor="start" dominant-baseline="alphabetic">game.start</text></g><g><path fill="none" stroke="black" paint-order="fill stroke markers" d=" M 106.17882145 1231.4293007704998 L 476.3416254679297 1231.4293007704998" stroke-miterlimit="10" stroke-width="1.3612669416666667" stroke-dasharray=""/><g transform="translate(479.064159351263,1231.4293007704998) translate(-479.064159351263,-1231.4293007704998)"><path fill="black" stroke="none" paint-order="stroke fill markers" d=" M 465.45148993459634 1224.6229660621666 L 479.064159351263 1231.4293007704998 L 465.45148993459634 1238.235635478833 Z"/></g></g><g><g><rect fill="white" stroke="none" x="255.5434480648112" y="1255.9321057205" width="74.15608467164063" height="21.23576429"/></g><text fill="black" stroke="none" font-family="sans-serif" font-size="11pt" font-style="normal" font-weight="normal" text-decoration="normal" x="257.9937285598112" y="1270.6337886905" text-anchor="start" dominant-baseline="alphabetic">game.start</text></g><g><path fill="none" stroke="black" paint-order="fill stroke markers" d=" M 479.064159351263 1277.1678700104999 L 108.90135533333333 1277.1678700104999" stroke-miterlimit="10" stroke-width="1.3612669416666667" stroke-dasharray="6.53408132"/><g transform="translate(106.17882145,1277.1678700104999) translate(-106.17882145,-1277.1678700104999)"><path fill="black" stroke="none" paint-order="stroke fill markers" d=" M 119.79149086666666 1270.3615353021667 L 106.17882145 1277.1678700104999 L 119.79149086666666 1283.974204718833 Z"/></g></g><g><g><rect fill="white" stroke="none" x="253.90779743004558" y="1345.7757238705" width="77.42738594117188" height="21.23576429"/></g><text fill="black" stroke="none" font-family="sans-serif" font-size="11pt" font-style="normal" font-weight="normal" text-decoration="normal" x="256.35807792504556" y="1360.4774068405002" text-anchor="start" dominant-baseline="alphabetic">game.state</text></g><g><path fill="none" stroke="black" paint-order="fill stroke markers" d=" M 479.064159351263 1367.0114881605 L 108.90135533333333 1367.0114881605" stroke-miterlimit="10" stroke-width="1.3612669416666667" stroke-dasharray=""/><g transform="translate(106.17882145,1367.0114881605) translate(-106.17882145,-1367.0114881605)"><path fill="black" stroke="none" paint-order="stroke fill markers" d=" M 119.79149086666666 1360.2051534521668 L 106.17882145 1367.0114881605 L 119.79149086666666 1373.8178228688332 Z"/></g></g><g><g><rect fill="white" stroke="none" x="281.4925707064941" y="1391.5142931105001" width="77.42738594117188" height="21.23576429"/></g><text fill="black" stroke="none" font-family="sans-serif" font-size="11pt" font-style="normal" font-weight="normal" text-decoration="normal" x="283.94285120149414" y="1406.2159760805002" text-anchor="start" dominant-baseline="alphabetic">game.state</text></g><g><path fill="none" stroke="black" paint-order="fill stroke markers" d=" M 479.064159351263 1412.7500574005 L 164.07090188623047 1412.7500574005" stroke-miterlimit="10" stroke-width="1.3612669416666667" stroke-dasharray=""/><g transform="translate(161.34836800289713,1412.7500574005) translate(-161.34836800289713,-1412.7500574005)"><path fill="black" stroke="none" paint-order="stroke fill markers" d=" M 174.9610374195638 1405.9437226921668 L 161.34836800289713 1412.7500574005 L 174.9610374195638 1419.5563921088333 Z"/></g></g><g><g><rect fill="white" stroke="none" x="232.72671375084636" y="1461.7556673005001" width="119.78955329957031" height="21.23576429"/></g><text fill="black" stroke="none" font-family="sans-serif" font-size="11pt" font-style="normal" font-weight="normal" text-decoration="normal" x="235.17699424584634" y="1476.4573502705002" text-anchor="start" dominant-baseline="alphabetic">game.cards.black</text></g><g><path fill="none" stroke="black" paint-order="fill stroke markers" d=" M 479.064159351263 1482.9914315905 L 108.90135533333333 1482.9914315905" stroke-miterlimit="10" stroke-width="1.3612669416666667" stroke-dasharray=""/><g transform="translate(106.17882145,1482.9914315905) translate(-106.17882145,-1482.9914315905)"><path fill="black" stroke="none" paint-order="stroke fill markers" d=" M 119.79149086666666 1476.1850968821668 L 106.17882145 1482.9914315905 L 119.79149086666666 1489.7977662988333 Z"/></g></g><g><g><rect fill="white" stroke="none" x="260.3114870272949" y="1507.4942365405002" width="119.78955329957031" height="21.23576429"/></g><text fill="black" stroke="none" font-family="sans-serif" font-size="11pt" font-style="normal" font-weight="normal" text-decoration="normal" x="262.7617675222949" y="1522.1959195105003" text-anchor="start" dominant-baseline="alphabetic">game.cards.black</text></g><g><path fill="none" stroke="black" paint-order="fill stroke markers" d=" M 479.064159351263 1528.7300008305 L 164.07090188623047 1528.7300008305" stroke-miterlimit="10" stroke-width="1.3612669416666667" stroke-dasharray=""/><g transform="translate(161.34836800289713,1528.7300008305) translate(-161.34836800289713,-1528.7300008305)"><path fill="black" stroke="none" paint-order="stroke fill markers" d=" M 174.9610374195638 1521.9236661221669 L 161.34836800289713 1528.7300008305 L 174.9610374195638 1535.5363355388333 Z"/></g></g><g><g><rect fill="white" stroke="none" x="254.7274309139323" y="1597.3378546905003" width="75.78811897339844" height="21.23576429"/></g><text fill="black" stroke="none" font-family="sans-serif" font-size="11pt" font-style="normal" font-weight="normal" text-decoration="normal" x="257.1777114089323" y="1612.0395376605004" text-anchor="start" dominant-baseline="alphabetic">player.czar</text></g><g><path fill="none" stroke="black" paint-order="fill stroke markers" d=" M 479.064159351263 1618.5736189805002 L 108.90135533333333 1618.5736189805002" stroke-miterlimit="10" stroke-width="1.3612669416666667" stroke-dasharray=""/><g transform="translate(106.17882145,1618.5736189805002) translate(-106.17882145,-1618.5736189805002)"><path fill="black" stroke="none" paint-order="stroke fill markers" d=" M 119.79149086666666 1611.767284272167 L 106.17882145 1618.5736189805002 L 119.79149086666666 1625.3799536888334 Z"/></g></g><g><g><rect fill="white" stroke="none" x="282.31220419038084" y="1643.0764239305004" width="75.78811897339844" height="21.23576429"/></g><text fill="black" stroke="none" font-family="sans-serif" font-size="11pt" font-style="normal" font-weight="normal" text-decoration="normal" x="284.76248468538085" y="1657.7781069005005" text-anchor="start" dominant-baseline="alphabetic">player.czar</text></g><g><path fill="none" stroke="black" paint-order="fill stroke markers" d=" M 479.064159351263 1664.3121882205003 L 164.07090188623047 1664.3121882205003" stroke-miterlimit="10" stroke-width="1.3612669416666667" stroke-dasharray=""/><g transform="translate(161.34836800289713,1664.3121882205003) translate(-161.34836800289713,-1664.3121882205003)"><path fill="black" stroke="none" paint-order="stroke fill markers" d=" M 174.9610374195638 1657.505853512167 L 161.34836800289713 1664.3121882205003 L 174.9610374195638 1671.1185229288335 Z"/></g></g><path fill="white" stroke="black" paint-order="fill stroke markers" d=" M 479.064159351263 1800.7111357755002 L 470.896557701263 1800.7111357755002 M 352.63116351009114 1781.9256519805 L 456.19487473126304 1781.9256519805 L 470.896557701263 1796.6273349505002 L 470.896557701263 1819.4966195705001 L 352.63116351009114 1819.4966195705001 L 352.63116351009114 1781.9256519805 M 456.19487473126304 1781.9256519805 L 456.19487473126304 1796.6273349505002 L 470.896557701263 1796.6273349505002" stroke-miterlimit="10" stroke-width="1.3612669416666667" stroke-dasharray=""/><g><text fill="black" stroke="none" font-family="sans-serif" font-size="11pt" font-style="normal" font-weight="normal" text-decoration="normal" x="375.5004481300912" y="1804.7949366005003" text-anchor="start" dominant-baseline="alphabetic">game.state</text></g><g><g><rect fill="white" stroke="none" x="224.97798023033855" y="1843.9994245205003" width="135.28702034058594" height="21.23576429"/></g><text fill="black" stroke="none" font-family="sans-serif" font-size="11pt" font-style="normal" font-weight="normal" text-decoration="normal" x="227.42826072533853" y="1858.7011074905004" text-anchor="start" dominant-baseline="alphabetic">player.cards.choose</text></g><g><path fill="none" stroke="black" paint-order="fill stroke markers" d=" M 106.17882145 1865.2351888105002 L 476.3416254679297 1865.2351888105002" stroke-miterlimit="10" stroke-width="1.3612669416666667" stroke-dasharray=""/><g transform="translate(479.064159351263,1865.2351888105002) translate(-479.064159351263,-1865.2351888105002)"><path fill="black" stroke="none" paint-order="stroke fill markers" d=" M 465.45148993459634 1858.428854102167 L 479.064159351263 1865.2351888105002 L 465.45148993459634 1872.0415235188334 Z"/></g></g><g><g><rect fill="white" stroke="none" x="252.56275350678712" y="1889.7379937605003" width="135.28702034058594" height="21.23576429"/></g><text fill="black" stroke="none" font-family="sans-serif" font-size="11pt" font-style="normal" font-weight="normal" text-decoration="normal" x="255.0130340017871" y="1904.4396767305004" text-anchor="start" dominant-baseline="alphabetic">player.cards.choose</text></g><g><path fill="none" stroke="black" paint-order="fill stroke markers" d=" M 161.34836800289713 1910.9737580505002 L 476.3416254679297 1910.9737580505002" stroke-miterlimit="10" stroke-width="1.3612669416666667" stroke-dasharray=""/><g transform="translate(479.064159351263,1910.9737580505002) translate(-479.064159351263,-1910.9737580505002)"><path fill="black" stroke="none" paint-order="stroke fill markers" d=" M 465.45148993459634 1904.167423342167 L 479.064159351263 1910.9737580505002 L 465.45148993459634 1917.7800927588335 Z"/></g></g><g><g><rect fill="white" stroke="none" x="226.20918140221355" y="1979.5816119105004" width="132.82461799683594" height="21.23576429"/></g><text fill="black" stroke="none" font-family="sans-serif" font-size="11pt" font-style="normal" font-weight="normal" text-decoration="normal" x="228.65946189721353" y="1994.2832948805005" text-anchor="start" dominant-baseline="alphabetic">game.players.cards</text></g><g><path fill="none" stroke="black" paint-order="fill stroke markers" d=" M 479.064159351263 2000.8173762005003 L 108.90135533333333 2000.8173762005003" stroke-miterlimit="10" stroke-width="1.3612669416666667" stroke-dasharray=""/><g transform="translate(106.17882145,2000.8173762005003) translate(-106.17882145,-2000.8173762005003)"><path fill="black" stroke="none" paint-order="stroke fill markers" d=" M 119.79149086666666 1994.0110414921671 L 106.17882145 2000.8173762005003 L 119.79149086666666 2007.6237109088336 Z"/></g></g><g><g><rect fill="white" stroke="none" x="253.79395467866212" y="2025.3201811505005" width="132.82461799683594" height="21.23576429"/></g><text fill="black" stroke="none" font-family="sans-serif" font-size="11pt" font-style="normal" font-weight="normal" text-decoration="normal" x="256.2442351736621" y="2040.0218641205006" text-anchor="start" dominant-baseline="alphabetic">game.players.cards</text></g><g><path fill="none" stroke="black" paint-order="fill stroke markers" d=" M 479.064159351263 2046.5559454405004 L 164.07090188623047 2046.5559454405004" stroke-miterlimit="10" stroke-width="1.3612669416666667" stroke-dasharray=""/><g transform="translate(161.34836800289713,2046.5559454405004) translate(-161.34836800289713,-2046.5559454405004)"><path fill="black" stroke="none" paint-order="stroke fill markers" d=" M 174.9610374195638 2039.7496107321672 L 161.34836800289713 2046.5559454405004 L 174.9610374195638 2053.3622801488336 Z"/></g></g><path fill="white" stroke="black" paint-order="fill stroke markers" d=" M 479.064159351263 2182.9548929955004 L 470.896557701263 2182.9548929955004 M 352.63116351009114 2164.1694092005005 L 456.19487473126304 2164.1694092005005 L 470.896557701263 2178.8710921705006 L 470.896557701263 2201.7403767905002 L 352.63116351009114 2201.7403767905002 L 352.63116351009114 2164.1694092005005 M 456.19487473126304 2164.1694092005005 L 456.19487473126304 2178.8710921705006 L 470.896557701263 2178.8710921705006" stroke-miterlimit="10" stroke-width="1.3612669416666667" stroke-dasharray=""/><g><text fill="black" stroke="none" font-family="sans-serif" font-size="11pt" font-style="normal" font-weight="normal" text-decoration="normal" x="375.5004481300912" y="2187.0386938205006" text-anchor="start" dominant-baseline="alphabetic">game.state</text></g><g><g><rect fill="white" stroke="none" x="236.38455066490886" y="2226.2431817405" width="112.47387947144531" height="21.23576429"/></g><text fill="black" stroke="none" font-family="sans-serif" font-size="11pt" font-style="normal" font-weight="normal" text-decoration="normal" x="238.83483115990884" y="2240.9448647105" text-anchor="start" dominant-baseline="alphabetic">game.czar.judge</text></g><g><path fill="none" stroke="black" paint-order="fill stroke markers" d=" M 106.17882145 2247.4789460305 L 476.3416254679297 2247.4789460305" stroke-miterlimit="10" stroke-width="1.3612669416666667" stroke-dasharray=""/><g transform="translate(479.064159351263,2247.4789460305) translate(-479.064159351263,-2247.4789460305)"><path fill="black" stroke="none" paint-order="stroke fill markers" d=" M 465.45148993459634 2240.6726113221666 L 479.064159351263 2247.4789460305 L 465.45148993459634 2254.2852807388335 Z"/></g></g><g><g><rect fill="white" stroke="none" x="236.38455066490886" y="2271.9817509805" width="112.47387947144531" height="21.23576429"/></g><text fill="black" stroke="none" font-family="sans-serif" font-size="11pt" font-style="normal" font-weight="normal" text-decoration="normal" x="238.83483115990884" y="2286.6834339505" text-anchor="start" dominant-baseline="alphabetic">game.czar.judge</text></g><g><path fill="none" stroke="black" paint-order="fill stroke markers" d=" M 479.064159351263 2293.2175152705 L 108.90135533333333 2293.2175152705" stroke-miterlimit="10" stroke-width="1.3612669416666667" stroke-dasharray="6.53408132"/><g transform="translate(106.17882145,2293.2175152705) translate(-106.17882145,-2293.2175152705)"><path fill="black" stroke="none" paint-order="stroke fill markers" d=" M 119.79149086666666 2286.4111805621665 L 106.17882145 2293.2175152705 L 119.79149086666666 2300.0238499788334 Z"/></g></g><g><g><rect fill="white" stroke="none" x="232.30795917320964" y="2361.8253691304994" width="120.62706245484375" height="21.23576429"/></g><text fill="black" stroke="none" font-family="sans-serif" font-size="11pt" font-style="normal" font-weight="normal" text-decoration="normal" x="234.75823966820963" y="2376.5270521004995" text-anchor="start" dominant-baseline="alphabetic">game.czar.judged</text></g><g><path fill="none" stroke="black" paint-order="fill stroke markers" d=" M 479.064159351263 2383.0611334204996 L 108.90135533333333 2383.0611334204996" stroke-miterlimit="10" stroke-width="1.3612669416666667" stroke-dasharray=""/><g transform="translate(106.17882145,2383.0611334204996) translate(-106.17882145,-2383.0611334204996)"><path fill="black" stroke="none" paint-order="stroke fill markers" d=" M 119.79149086666666 2376.254798712166 L 106.17882145 2383.0611334204996 L 119.79149086666666 2389.867468128833 Z"/></g></g><g><g><rect fill="white" stroke="none" x="259.8927324496582" y="2407.5639383704993" width="120.62706245484375" height="21.23576429"/></g><text fill="black" stroke="none" font-family="sans-serif" font-size="11pt" font-style="normal" font-weight="normal" text-decoration="normal" x="262.3430129446582" y="2422.2656213404994" text-anchor="start" dominant-baseline="alphabetic">game.czar.judged</text></g><g><path fill="none" stroke="black" paint-order="fill stroke markers" d=" M 479.064159351263 2428.7997026604994 L 164.07090188623047 2428.7997026604994" stroke-miterlimit="10" stroke-width="1.3612669416666667" stroke-dasharray=""/><g transform="translate(161.34836800289713,2428.7997026604994) translate(-161.34836800289713,-2428.7997026604994)"><path fill="black" stroke="none" paint-order="stroke fill markers" d=" M 174.9610374195638 2421.993367952166 L 161.34836800289713 2428.7997026604994 L 174.9610374195638 2435.606037368833 Z"/></g></g><path fill="white" stroke="black" paint-order="fill stroke markers" d=" M 487.231761001263 2521.0936013054998 L 479.064159351263 2521.0936013054998 M 264.65707204485676 2502.3081175105 L 464.36247638126304 2502.3081175105 L 479.064159351263 2517.0098004805 L 479.064159351263 2539.8790851004997 L 264.65707204485676 2539.8790851004997 L 264.65707204485676 2502.3081175105 M 464.36247638126304 2502.3081175105 L 464.36247638126304 2517.0098004805 L 479.064159351263 2517.0098004805" stroke-miterlimit="10" stroke-width="1.3612669416666667" stroke-dasharray=""/><g><text fill="black" stroke="none" font-family="sans-serif" font-size="11pt" font-style="normal" font-weight="normal" text-decoration="normal" x="287.52635666485673" y="2525.1774021305" text-anchor="start" dominant-baseline="alphabetic">Loop start with game.start</text></g><g><g/><path fill="none" stroke="black" paint-order="fill stroke markers" d=" M 16.335203300000003 161.47348462049996 L 577.075379151263 161.47348462049996 L 577.075379151263 2564.3818900505 L 16.335203300000003 2564.3818900505 L 16.335203300000003 161.47348462049996 Z" stroke-miterlimit="10" stroke-width="2.3336004714285714" stroke-dasharray=""/><path fill="white" stroke="black" paint-order="fill stroke markers" d=" M 16.335203300000003 161.47348462049996 L 16.335203300000003 181.07572858049997 L 93.33672562265625 181.07572858049997 L 103.13784760265625 171.27460660049996 L 103.13784760265625 161.47348462049996 L 16.335203300000003 161.47348462049996" stroke-miterlimit="10" stroke-width="2.3336004714285714" stroke-dasharray=""/><text fill="black" stroke="none" font-family="sans-serif" font-size="8.8pt" font-style="normal" font-weight="bold" text-decoration="normal" x="32.67040660000001" y="174.54164726049996" text-anchor="start" dominant-baseline="alphabetic">Game A</text></g><g><g/><path fill="none" stroke="black" paint-order="fill stroke markers" d=" M 49.0056099 205.57853353049995 L 544.404972551263 205.57853353049995 L 544.404972551263 386.89929016049996 L 49.0056099 386.89929016049996 L 49.0056099 205.57853353049995 Z" stroke-miterlimit="10" stroke-width="2.3336004714285714" stroke-dasharray=""/><path fill="white" stroke="black" paint-order="fill stroke markers" d=" M 49.0056099 205.57853353049995 L 49.0056099 225.18077749049996 L 178.16205470800782 225.18077749049996 L 187.96317668800782 215.37965551049996 L 187.96317668800782 205.57853353049995 L 49.0056099 205.57853353049995" stroke-miterlimit="10" stroke-width="2.3336004714285714" stroke-dasharray=""/><text fill="black" stroke="none" font-family="sans-serif" font-size="8.8pt" font-style="normal" font-weight="bold" text-decoration="normal" x="65.3408132" y="218.64669617049995" text-anchor="start" dominant-baseline="alphabetic">Create new game</text></g><g><g/><path fill="none" stroke="black" paint-order="fill stroke markers" d=" M 49.0056099 411.40209511049994 L 544.404972551263 411.40209511049994 L 544.404972551263 638.4614209804998 L 49.0056099 638.4614209804998 L 49.0056099 411.40209511049994 Z" stroke-miterlimit="10" stroke-width="2.3336004714285714" stroke-dasharray=""/><path fill="white" stroke="black" paint-order="fill stroke markers" d=" M 49.0056099 411.40209511049994 L 49.0056099 431.00433907049995 L 163.80310695410157 431.00433907049995 L 173.60422893410157 421.20321709049995 L 173.60422893410157 411.40209511049994 L 49.0056099 411.40209511049994" stroke-miterlimit="10" stroke-width="2.3336004714285714" stroke-dasharray=""/><text fill="black" stroke="none" font-family="sans-serif" font-size="8.8pt" font-style="normal" font-weight="bold" text-decoration="normal" x="65.3408132" y="424.47025775049997" text-anchor="start" dominant-baseline="alphabetic">Join this game</text></g><g><g/><path fill="none" stroke="black" paint-order="fill stroke markers" d=" M 49.0056099 662.9642259304998 L 544.404972551263 662.9642259304998 L 544.404972551263 935.7621210404996 L 49.0056099 935.7621210404996 L 49.0056099 662.9642259304998 Z" stroke-miterlimit="10" stroke-width="2.3336004714285714" stroke-dasharray=""/><path fill="white" stroke="black" paint-order="fill stroke markers" d=" M 49.0056099 662.9642259304998 L 49.0056099 682.5664698904998 L 163.80310695410157 682.5664698904998 L 173.60422893410157 672.7653479104997 L 173.60422893410157 662.9642259304998 L 49.0056099 662.9642259304998" stroke-miterlimit="10" stroke-width="2.3336004714285714" stroke-dasharray=""/><text fill="black" stroke="none" font-family="sans-serif" font-size="8.8pt" font-style="normal" font-weight="bold" text-decoration="normal" x="65.3408132" y="676.0323885704997" text-anchor="start" dominant-baseline="alphabetic">Join this game</text></g><g><g/><path fill="none" stroke="black" paint-order="fill stroke markers" d=" M 49.0056099 960.2649259904996 L 544.404972551263 960.2649259904996 L 544.404972551263 1141.5856826204997 L 49.0056099 1141.5856826204997 L 49.0056099 960.2649259904996 Z" stroke-miterlimit="10" stroke-width="2.3336004714285714" stroke-dasharray=""/><path fill="white" stroke="black" paint-order="fill stroke markers" d=" M 49.0056099 960.2649259904996 L 49.0056099 979.8671699504996 L 172.95000331640625 979.8671699504996 L 182.75112529640626 970.0660479704995 L 182.75112529640626 960.2649259904996 L 49.0056099 960.2649259904996" stroke-miterlimit="10" stroke-width="2.3336004714285714" stroke-dasharray=""/><text fill="black" stroke="none" font-family="sans-serif" font-size="8.8pt" font-style="normal" font-weight="bold" text-decoration="normal" x="65.3408132" y="973.3330886304996" text-anchor="start" dominant-baseline="alphabetic">Leave this game</text></g><g><g/><path fill="none" stroke="black" paint-order="fill stroke markers" d=" M 32.67040660000001 1166.0884875704999 L 560.740175851263 1166.0884875704999 L 560.740175851263 1713.3177981205001 L 32.67040660000001 1713.3177981205001 L 32.67040660000001 1166.0884875704999 Z" stroke-miterlimit="10" stroke-width="2.3336004714285714" stroke-dasharray=""/><path fill="white" stroke="black" paint-order="fill stroke markers" d=" M 32.67040660000001 1166.0884875704999 L 32.67040660000001 1185.6907315304998 L 155.93317465019533 1185.6907315304998 L 165.73429663019533 1175.8896095505 L 165.73429663019533 1166.0884875704999 L 32.67040660000001 1166.0884875704999" stroke-miterlimit="10" stroke-width="2.3336004714285714" stroke-dasharray=""/><text fill="black" stroke="none" font-family="sans-serif" font-size="8.8pt" font-style="normal" font-weight="bold" text-decoration="normal" x="49.00560990000001" y="1179.1566502104997" text-anchor="start" dominant-baseline="alphabetic">Czar start round</text></g><g><g/><path fill="none" stroke="black" paint-order="fill stroke markers" d=" M 49.0056099 1301.6706749605 L 544.404972551263 1301.6706749605 L 544.404972551263 1437.2528623505 L 49.0056099 1437.2528623505 L 49.0056099 1301.6706749605 Z" stroke-miterlimit="10" stroke-width="2.3336004714285714" stroke-dasharray=""/><path fill="white" stroke="black" paint-order="fill stroke markers" d=" M 49.0056099 1301.6706749605 L 49.0056099 1321.2729189205 L 142.96063869238282 1321.2729189205 L 152.76176067238282 1311.4717969405 L 152.76176067238282 1301.6706749605 L 49.0056099 1301.6706749605" stroke-miterlimit="10" stroke-width="2.3336004714285714" stroke-dasharray=""/><text fill="black" stroke="none" font-family="sans-serif" font-size="8.8pt" font-style="normal" font-weight="bold" text-decoration="normal" x="65.3408132" y="1314.7388376005" text-anchor="start" dominant-baseline="alphabetic">game.state</text></g><g><g/><path fill="none" stroke="black" paint-order="fill stroke markers" d=" M 49.0056099 1553.2328057805003 L 544.404972551263 1553.2328057805003 L 544.404972551263 1688.8149931705002 L 49.0056099 1688.8149931705002 L 49.0056099 1553.2328057805003 Z" stroke-miterlimit="10" stroke-width="2.3336004714285714" stroke-dasharray=""/><path fill="white" stroke="black" paint-order="fill stroke markers" d=" M 49.0056099 1553.2328057805003 L 49.0056099 1572.8350497405002 L 347.9660555625 1572.8350497405002 L 357.7671775425 1563.0339277605003 L 357.7671775425 1553.2328057805003 L 49.0056099 1553.2328057805003" stroke-miterlimit="10" stroke-width="2.3336004714285714" stroke-dasharray=""/><text fill="black" stroke="none" font-family="sans-serif" font-size="8.8pt" font-style="normal" font-weight="bold" text-decoration="normal" x="65.3408132" y="1566.3009684205" text-anchor="start" dominant-baseline="alphabetic">Emit if round is &gt;= 1 | if round is &lt; 1 czar is host</text></g><g><g/><path fill="none" stroke="black" paint-order="fill stroke markers" d=" M 32.67040660000001 1737.8206030705003 L 560.740175851263 1737.8206030705003 L 560.740175851263 2095.5615553405005 L 32.67040660000001 2095.5615553405005 L 32.67040660000001 1737.8206030705003 Z" stroke-miterlimit="10" stroke-width="2.3336004714285714" stroke-dasharray=""/><path fill="white" stroke="black" paint-order="fill stroke markers" d=" M 32.67040660000001 1737.8206030705003 L 32.67040660000001 1757.4228470305002 L 154.65024618339845 1757.4228470305002 L 164.45136816339846 1747.6217250505003 L 164.45136816339846 1737.8206030705003 L 32.67040660000001 1737.8206030705003" stroke-miterlimit="10" stroke-width="2.3336004714285714" stroke-dasharray=""/><text fill="black" stroke="none" font-family="sans-serif" font-size="8.8pt" font-style="normal" font-weight="bold" text-decoration="normal" x="49.00560990000001" y="1750.8887657105001" text-anchor="start" dominant-baseline="alphabetic">Selection phase</text></g><g><g/><path fill="none" stroke="black" paint-order="fill stroke markers" d=" M 49.0056099 1935.4765630005004 L 544.404972551263 1935.4765630005004 L 544.404972551263 2071.0587503905003 L 49.0056099 2071.0587503905003 L 49.0056099 1935.4765630005004 Z" stroke-miterlimit="10" stroke-width="2.3336004714285714" stroke-dasharray=""/><path fill="white" stroke="black" paint-order="fill stroke markers" d=" M 49.0056099 1935.4765630005004 L 49.0056099 1955.0788069605003 L 321.6023318076172 1955.0788069605003 L 331.4034537876172 1945.2776849805005 L 331.4034537876172 1935.4765630005004 L 49.0056099 1935.4765630005004" stroke-miterlimit="10" stroke-width="2.3336004714285714" stroke-dasharray=""/><text fill="black" stroke="none" font-family="sans-serif" font-size="8.8pt" font-style="normal" font-weight="bold" text-decoration="normal" x="65.3408132" y="1948.5447256405002" text-anchor="start" dominant-baseline="alphabetic">If every player choosed card, emit all cards</text></g><g><g/><path fill="none" stroke="black" paint-order="fill stroke markers" d=" M 32.67040660000001 2120.0643602905 L 560.740175851263 2120.0643602905 L 560.740175851263 2477.8053125604997 L 32.67040660000001 2477.8053125604997 L 32.67040660000001 2120.0643602905 Z" stroke-miterlimit="10" stroke-width="2.3336004714285714" stroke-dasharray=""/><path fill="white" stroke="black" paint-order="fill stroke markers" d=" M 32.67040660000001 2120.0643602905 L 32.67040660000001 2139.6666042505003 L 148.1094136638672 2139.6666042505003 L 157.9105356438672 2129.8654822705003 L 157.9105356438672 2120.0643602905 L 32.67040660000001 2120.0643602905" stroke-miterlimit="10" stroke-width="2.3336004714285714" stroke-dasharray=""/><text fill="black" stroke="none" font-family="sans-serif" font-size="8.8pt" font-style="normal" font-weight="bold" text-decoration="normal" x="49.00560990000001" y="2133.1325229305003" text-anchor="start" dominant-baseline="alphabetic">Judging phase</text></g><g><g/><path fill="none" stroke="black" paint-order="fill stroke markers" d=" M 49.0056099 2317.7203202204996 L 544.404972551263 2317.7203202204996 L 544.404972551263 2453.3025076104996 L 49.0056099 2453.3025076104996 L 49.0056099 2317.7203202204996 Z" stroke-miterlimit="10" stroke-width="2.3336004714285714" stroke-dasharray=""/><path fill="white" stroke="black" paint-order="fill stroke markers" d=" M 49.0056099 2317.7203202204996 L 49.0056099 2337.3225641804997 L 364.58171718359375 2337.3225641804997 L 374.38283916359376 2327.5214422004997 L 374.38283916359376 2317.7203202204996 L 49.0056099 2317.7203202204996" stroke-miterlimit="10" stroke-width="2.3336004714285714" stroke-dasharray=""/><text fill="black" stroke="none" font-family="sans-serif" font-size="8.8pt" font-style="normal" font-weight="bold" text-decoration="normal" x="65.3408132" y="2330.7884828604997" text-anchor="start" dominant-baseline="alphabetic">Emit every player that the czar judged, emit winner</text></g></g><g/><g/><g/><g/></g></svg>